<svg width="23" height="26" viewBox="0 0 23 26" fill="none" xmlns="http://www.w3.org/2000/svg">
    <g clip-path="url(#clip0_4_1329)">
        <path fill-rule="evenodd" clip-rule="evenodd" d="M12.1476 0.175517C12.1476 0.175517 12.1476 0 12.2466 0C12.2625 0 12.2821 0.00494414 12.3041 0.0173045C17.0976 2.40038 22.4399 7.40632 22.4399 15.1142C22.4399 20.8346 17.9617 26 11.4399 26C4.36816 26 0.439941 20.9941 0.439941 15.0351C0.439941 11.4593 2.79761 7.88343 5.54639 6.29389C5.54639 6.29389 5.78227 6.29389 5.78227 6.45334C5.78227 7.24811 6.09761 9.23442 6.96172 10.426L7.03994 10.5051C11.9899 8.91676 12.7758 4.30758 12.1476 0.175517ZM19.9955 15.1142C19.9955 10.0131 17.1991 6.55717 14.6617 4.47321C14.1178 8.62753 11.7369 11.5915 7.77816 12.8609L6.36161 13.3158L5.3105 12.2528L5.23228 12.1737L5.10028 12.0402L4.99027 11.8882C4.73483 11.5359 4.51727 11.1552 4.3315 10.7622C3.48205 11.9846 2.88439 13.4876 2.88439 15.0351C2.88439 18.9521 5.12472 23.5279 11.4399 23.5279C16.7957 23.5279 19.9955 19.25 19.9955 15.1142Z" fill="#99A3B0"/>
        <path fill-rule="evenodd" clip-rule="evenodd" d="M12.1476 0.175517C12.1476 0.175517 12.1476 0 12.2466 0C12.2625 0 12.2821 0.00494414 12.3041 0.0173045C17.0976 2.40038 22.4399 7.40632 22.4399 15.1142C22.4399 20.8346 17.9617 26 11.4399 26C4.36816 26 0.439941 20.9941 0.439941 15.0351C0.439941 11.4593 2.79761 7.88343 5.54639 6.29389C5.54639 6.29389 5.78227 6.29389 5.78227 6.45334C5.78227 7.24811 6.09761 9.23442 6.96172 10.426L7.03994 10.5051C11.9899 8.91676 12.7758 4.30758 12.1476 0.175517ZM19.9955 15.1142C19.9955 10.0131 17.1991 6.55717 14.6617 4.47321C14.1178 8.62753 11.7369 11.5915 7.77816 12.8609L6.36161 13.3158L5.3105 12.2528L5.23228 12.1737L5.10028 12.0402L4.99027 11.8882C4.73483 11.5359 4.51727 11.1552 4.3315 10.7622C3.48205 11.9846 2.88439 13.4876 2.88439 15.0351C2.88439 18.9521 5.12472 23.5279 11.4399 23.5279C16.7957 23.5279 19.9955 19.25 19.9955 15.1142Z" fill="#F65E7E"/>
    </g>
    <defs>
        <clipPath id="clip0_4_1329">
            <rect width="22.0001" height="26" fill="white" transform="translate(0.439941)"/>
        </clipPath>
    </defs>
</svg>
